<svg width="37" height="36" viewBox="0 0 37 36" fill="none" xmlns="http://www.w3.org/2000/svg">
<path d="M6.73645 10.9699H35.1176L28.5136 22.8496H8.47549C8.47549 22.8496 6.0579 12.2517 6.73645 10.9699Z" fill="#EDEDED"/>
<path d="M9.6213 29.2135C9.33361 29.2135 9.10048 28.9804 9.10048 28.6947C9.10048 28.406 9.3346 28.1709 9.6213 28.1709H31.5046C32.7179 28.1709 33.704 27.1838 33.704 25.9705C33.704 24.7563 32.7179 23.7682 31.5046 23.7682H8.64811C8.39316 23.7682 8.17689 23.5867 8.13523 23.3367L5.02123 5.18142L0.768368 0.984111C0.668172 0.886891 0.612618 0.756935 0.609642 0.617058C0.607658 0.479165 0.661228 0.348216 0.759439 0.246036C0.856659 0.144848 0.989592 0.0892944 1.13046 0.0892944C1.26935 0.0892944 1.39633 0.14088 1.49751 0.237108L5.85851 4.48897C5.93886 4.56635 5.99045 4.66457 6.0083 4.77369L6.91502 10.0533H35.6226C35.8091 10.0533 35.9807 10.1535 36.073 10.3152C36.1672 10.4769 36.1662 10.6763 36.072 10.837L29.1704 22.7246H31.5056C33.2943 22.7246 34.7496 24.1809 34.7496 25.9695C34.7496 27.7582 33.2943 29.2135 31.5056 29.2135H9.6213ZM9.08857 22.7246H27.85L34.7168 11.0969H7.09359L9.08857 22.7246Z" fill="black"/>
<path d="M15.6678 35.4782C16.7274 35.4782 17.5864 34.6063 17.5864 33.5308C17.5864 32.4553 16.7274 31.5835 15.6678 31.5835C14.6082 31.5835 13.7492 32.4553 13.7492 33.5308C13.7492 34.6063 14.6082 35.4782 15.6678 35.4782Z" stroke="black" stroke-width="0.992036" stroke-miterlimit="10" stroke-linejoin="round"/>
<path d="M25.4671 35.4782C26.5267 35.4782 27.3857 34.6063 27.3857 33.5308C27.3857 32.4553 26.5267 31.5835 25.4671 31.5835C24.4075 31.5835 23.5485 32.4553 23.5485 33.5308C23.5485 34.6063 24.4075 35.4782 25.4671 35.4782Z" stroke="black" stroke-width="0.992036" stroke-miterlimit="10" stroke-linejoin="round"/>
</svg>
