<svg width="24" height="25" viewBox="0 0 24 25" fill="none" xmlns="http://www.w3.org/2000/svg">
<g clip-path="url(#clip0_194_4950)">
<path opacity="0.989" fill-rule="evenodd" clip-rule="evenodd" d="M11.0857 0.380859C11.6795 0.380859 12.2732 0.380859 12.867 0.380859C16.2011 0.863495 18.5839 2.62912 20.0154 5.67773C20.6929 7.36533 20.8491 9.0997 20.4842 10.8809C20.0132 12.7468 19.2944 14.5125 18.3279 16.1777C16.7965 18.8027 15.0464 21.2715 13.0779 23.584C12.8404 23.8919 12.567 24.1575 12.2576 24.3809C12.0701 24.3809 11.8826 24.3809 11.6951 24.3809C11.3857 24.1575 11.1123 23.8919 10.8748 23.584C8.90628 21.2715 7.15625 18.8027 5.6248 16.1777C4.65827 14.5125 3.93952 12.7468 3.46855 10.8809C2.86187 7.46358 3.85406 4.61203 6.44511 2.32617C7.80725 1.2389 9.35413 0.590459 11.0857 0.380859ZM11.4139 4.74023C13.3336 4.61798 14.7945 5.36798 15.7967 6.99023C16.712 8.97591 16.4073 10.7493 14.8826 12.3105C13.3342 13.5623 11.6623 13.7498 9.86698 12.873C8.12028 11.7617 7.40933 10.1758 7.73417 8.11523C8.26817 6.22945 9.49475 5.10445 11.4139 4.74023Z" fill="#031221"/>
</g>
<defs>
<clipPath id="clip0_194_4950">
<rect width="24" height="24" fill="white" transform="translate(0 0.404297)"/>
</clipPath>
</defs>
</svg>
