<svg width="24" height="25" viewBox="0 0 24 25" fill="none" xmlns="http://www.w3.org/2000/svg">
<g clip-path="url(#clip0_194_4951)">
<path opacity="0.99" fill-rule="evenodd" clip-rule="evenodd" d="M1.47656 0.380859C3.22656 0.380859 4.97658 0.380859 6.72656 0.380859C7.63214 0.654024 8.13998 1.2634 8.25 2.20898C8.25797 3.78 8.50795 5.31127 9 6.80273C9.08039 7.29862 9.0023 7.76737 8.76562 8.20898C8.00212 9.19697 7.2443 10.1891 6.49219 11.1855C7.56741 13.2923 9.0518 15.0579 10.9453 16.4824C11.6626 16.9805 12.4048 17.4414 13.1719 17.8652C14.1172 17.1387 15.0625 16.4121 16.0078 15.6855C16.3639 15.4597 16.7545 15.3425 17.1797 15.334C18.0536 15.529 18.9286 15.7243 19.8047 15.9199C20.6911 16.044 21.5818 16.1222 22.4766 16.1543C23.2507 16.3738 23.7507 16.866 23.9766 17.6309C23.9766 19.3808 23.9766 21.1309 23.9766 22.8809C23.7422 23.6465 23.2422 24.1465 22.4766 24.3809C21.8828 24.3809 21.2891 24.3809 20.6953 24.3809C13.0145 23.6853 7.1317 20.0916 3.04688 13.5996C1.23947 10.5255 0.216037 7.21294 -0.0234375 3.66211C-0.0234375 3.06836 -0.0234375 2.47461 -0.0234375 1.88086C0.210938 1.11524 0.710939 0.615234 1.47656 0.380859Z" fill="#031221"/>
</g>
<defs>
<clipPath id="clip0_194_4951">
<rect width="24" height="24" fill="white" transform="translate(0 0.404297)"/>
</clipPath>
</defs>
</svg>
