<svg width="24" height="25" viewBox="0 0 24 25" fill="none" xmlns="http://www.w3.org/2000/svg">
<g clip-path="url(#clip0_194_4952)">
<path opacity="0.992" fill-rule="evenodd" clip-rule="evenodd" d="M23.9766 5.11524C23.9766 5.42775 23.9766 5.74022 23.9766 6.05274C23.8412 6.5722 23.56 7.00191 23.1328 7.3418C19.8516 9.52931 16.5703 11.7168 13.2891 13.9043C12.414 14.4355 11.5391 14.4355 10.6641 13.9043C7.38281 11.7168 4.10156 9.52931 0.820312 7.3418C0.393153 7.00191 0.111903 6.5722 -0.0234375 6.05274C-0.0234375 5.74022 -0.0234375 5.42775 -0.0234375 5.11524C0.243861 4.184 0.853238 3.61368 1.80469 3.4043C8.58595 3.37305 15.3672 3.37305 22.1484 3.4043C23.0993 3.61344 23.7087 4.18375 23.9766 5.11524Z" fill="#031221"/>
<path opacity="0.994" fill-rule="evenodd" clip-rule="evenodd" d="M-0.0234375 8.39648C3.37273 10.6439 6.76336 12.9017 10.1484 15.1699C11.3672 15.8262 12.5859 15.8262 13.8047 15.1699C17.1898 12.9017 20.5804 10.6439 23.9766 8.39648C23.9766 12.1465 23.9766 15.8965 23.9766 19.6465C23.7087 20.578 23.0993 21.1483 22.1484 21.3574C15.3672 21.3887 8.58595 21.3887 1.80469 21.3574C0.853238 21.148 0.243861 20.5777 -0.0234375 19.6465C-0.0234375 15.8965 -0.0234375 12.1465 -0.0234375 8.39648Z" fill="#031221"/>
</g>
<defs>
<clipPath id="clip0_194_4952">
<rect width="24" height="24" fill="white" transform="translate(0 0.404297)"/>
</clipPath>
</defs>
</svg>
