<svg width="32" height="32" viewBox="0 0 32 32" fill="none" xmlns="http://www.w3.org/2000/svg">
<path d="M15.666 17.852C23.292 17.852 29.57 23.664 30.503 31.168H31.028C29.775 22.843 23.386 17.568 15.687 17.568C7.98899 17.568 1.59899 22.842 0.347992 31.168H0.827992C1.76399 23.665 8.04099 17.852 15.666 17.852Z" stroke="black" stroke-width="0.6" stroke-miterlimit="10"/>
<path d="M15.688 17.523C11.194 17.523 7.53799 13.869 7.53799 9.37499C7.53799 4.87799 11.194 1.22299 15.688 1.22299C20.185 1.22299 23.838 4.87799 23.838 9.37499C23.839 13.869 20.186 17.523 15.688 17.523Z" fill="#EDEDED"/>
<path d="M15.689 17.707C20.2939 17.707 24.027 13.974 24.027 9.36901C24.027 4.76406 20.2939 1.03101 15.689 1.03101C11.084 1.03101 7.35098 4.76406 7.35098 9.36901C7.35098 13.974 11.084 17.707 15.689 17.707Z" stroke="black" stroke-miterlimit="10"/>
</svg>
